<svg id="Image" xmlns="http://www.w3.org/2000/svg" viewBox="0 0 24 24">
  <g id="g865">
    <path id="path2-8" d="M3.875,3a.361.361,0,0,0-.375.375V4.5H2v15h8.287a7.31,7.31,0,0,1-.164-.75H2.75V5.25H3.5v.375a.375.375,0,0,0,.75,0V5.25H6.313v.375a.375.375,0,1,0,.75,0V5.25H9.125v.375a.375.375,0,0,0,.75,0V5.25h2.063v.375a.375.375,0,1,0,.75,0V5.25H14.75v.375a.375.375,0,0,0,.75,0V5.25h.75v4.869a6.689,6.689,0,0,1,.75-.086V4.5H15.5V3.375a.375.375,0,0,0-.75,0V4.5H12.688V3.375a.375.375,0,0,0-.75,0V4.5H9.875V3.375a.375.375,0,0,0-.75,0V4.5H7.063V3.375a.375.375,0,1,0-.75,0V4.5H4.25V3.375A.36.36,0,0,0,3.875,3ZM14.9,7.125l-3.293,4.057L10.1,9.4l-.62.517,2.123,2.576,3.913-4.869ZM3.5,9.432v.75H8v-.75Zm6.6,5.08-.62.519.707.858a7.169,7.169,0,0,1,.28-.944Zm-6.6.039v.75H8v-.75Z" class="aw-theme-iconOutline" fill="#464646"/>
    <path id="path2-8-5" d="M1.875,0A.361.361,0,0,0,1.5.375V1.5H0v15H1v-.75H.75V2.25H1.5v.375a.375.375,0,0,0,.75,0V2.25H4.313v.375a.375.375,0,0,0,.75,0V2.25H7.125v.375a.375.375,0,0,0,.75,0V2.25H9.938v.375a.375.375,0,0,0,.75,0V2.25H12.75v.375a.375.375,0,0,0,.75,0V2.25h.75v.324H15V1.5H13.5V.375a.375.375,0,0,0-.75,0V1.5H10.688V.375a.375.375,0,0,0-.75,0V1.5H7.875V.375a.375.375,0,0,0-.75,0V1.5H5.063V.375a.375.375,0,0,0-.75,0V1.5H2.25V.375A.36.36,0,0,0,1.875,0Z" class="aw-theme-iconOutline" fill="#464646"/>
    <path id="path2-2-1" d="M17.5,24A6.5,6.5,0,1,1,24,17.5h0A6.487,6.487,0,0,1,17.526,24H17.5Zm0-12A5.5,5.5,0,1,0,23,17.5h0A5.55,5.55,0,0,0,17.5,12Z" class="aw-theme-iconOutline" fill="#464646"/>
    <path id="path830" d="M15.991,13.9v7l2.5-1.75,2.5-1.75-2.5-1.75Zm.83,1.645,1.387.924,1.386.926-1.386.923-1.387.926v-3.7Z" class="aw-theme-iconOutline" fill="#464646"/>
  </g>
</svg>
