<svg id="Layer_1" data-name="Layer 1" xmlns="http://www.w3.org/2000/svg" viewBox="0 0 24 24">
  <g id="g937">
    <path id="path4" d="M23,3V2H21V0H20V2H3V0H2V2H0V3H2V20H0v1H2v2H3V21H20v2h1V21h2V20H21V3ZM20,20H3V3H20Z" class="aw-theme-iconOutline" fill="#464646"/>
    <path id="rect6" d="M8,0H9V1H8Z" class="aw-theme-iconOutline" fill="#464646"/>
    <path id="rect20" d="M8,16H9v1H8Z" class="aw-theme-iconOutline" fill="#464646"/>
    <path id="rect20-7" d="M8,13.972H9v1H8Z" class="aw-theme-iconOutline" fill="#464646"/>
    <path id="rect22" d="M8,18H9v1H8Z" class="aw-theme-iconOutline" fill="#464646"/>
    <path id="path24" d="M9,23H8V22H9Z" class="aw-theme-iconOutline" fill="#464646"/>
    <path id="rect26" d="M6,14H7v1H6Z" class="aw-theme-iconOutline" fill="#464646"/>
    <path id="rect32" d="M0,8H1V9H0Z" class="aw-theme-iconOutline" fill="#464646"/>
    <path id="rect32-2" d="M-.018,14h1v1h-1Z" class="aw-theme-iconOutline" fill="#464646"/>
    <path id="rect34" d="M4,14H5v1H4Z" class="aw-theme-iconOutline" fill="#464646"/>
    <path id="rect42" d="M16,8h1V9H16Z" class="aw-theme-iconOutline" fill="#464646"/>
    <path id="rect44" d="M18,8h1V9H18Z" class="aw-theme-iconOutline" fill="#464646"/>
    <path id="path46" d="M23,9H22V8h1Z" class="aw-theme-iconOutline" fill="#464646"/>
    <path id="rect48" d="M22,14h1v1H22Z" class="aw-theme-iconOutline" fill="#464646"/>
    <path id="rect62" d="M14,6h1V7H14Z" class="aw-theme-iconOutline" fill="#464646"/>
    <path id="rect62-9" d="M14,4h1V5H14Z" class="aw-theme-iconOutline" fill="#464646"/>
    <path id="rect62-4" d="M14,0h1V1H14Z" class="aw-theme-iconOutline" fill="#464646"/>
    <path id="rect72" d="M14,22h1v1H14Z" class="aw-theme-iconOutline" fill="#464646"/>
    <path id="path946" d="M14.541,11.012a2.994,2.994,0,1,1,0-.012" class="aw-theme-iconOutline" fill="#464646"/>
    <path id="rect872" d="M4,4H8V8H4Z" class="aw-theme-iconOutline" fill="#464646"/>
    <path id="rect872-80" d="M15,15h4v4H15Z" class="aw-theme-iconOutline" fill="#464646"/>
  </g>
</svg>
