<svg id="Image" xmlns="http://www.w3.org/2000/svg" xmlns:xlink="http://www.w3.org/1999/xlink" viewBox="0 0 48 48">
  <defs>
    <linearGradient id="linear-gradient" x1="2.987" y1="47.013" x2="38.5" y2="11.5" gradientTransform="matrix(1, 0, 0, -1, 0, 50)" gradientUnits="userSpaceOnUse">
      <stop offset="0" stop-color="#fff"/>
      <stop offset="0.248" stop-color="#f8f8f8"/>
      <stop offset="0.606" stop-color="#e5e5e5"/>
      <stop offset="1" stop-color="#c8c8c8"/>
    </linearGradient>
    <linearGradient id="linear-gradient-2" x1="26.161" y1="23.839" x2="43.839" y2="6.161" gradientTransform="matrix(1, 0, 0, -1, 0, 50)" gradientUnits="userSpaceOnUse">
      <stop offset="0" stop-color="#73b4c8"/>
      <stop offset="0.175" stop-color="#6aaec3"/>
      <stop offset="0.457" stop-color="#529eb5"/>
      <stop offset="0.809" stop-color="#2c839f"/>
      <stop offset="1" stop-color="#147391"/>
    </linearGradient>
  </defs>
  <g id="g946">
    <path id="path33" d="M22.074.5a4.15,4.15,0,0,1-8.3,0h-8.3L.5,5.479V38.5h38V.5Z" stroke="#464646" stroke-miterlimit="10" fill="url(#linear-gradient)"/>
    <g id="g1488">
      <path id="circle94" d="M47.5,35A12.5,12.5,0,1,1,35,22.5,12.5,12.5,0,0,1,47.5,35Z" stroke="#464646" stroke-linecap="round" stroke-linejoin="round" fill="url(#linear-gradient-2)"/>
      <path id="polygon96" d="M28.756,34.571l3.73,4.482,9.2-11.376,2.334,1.884-11.5,14.228-6.074-7.3Z" fill="#fff"/>
      <path id="path98" d="M41.763,28.38l1.557,1.256L32.513,43l-5.362-6.449,1.54-1.276,3.8,4.566,9.27-11.461m-.15-1.406-.628.777-8.5,10.514-3.022-3.63-.638-.767-.768.637-1.54,1.276-.771.639.64.77,5.362,6.449.78.938.767-.948L44.1,30.264l.629-.778-.779-.629L42.391,27.6Z" fill="#147391"/>
    </g>
  </g>
</svg>
